<svg version="1" xmlns="http://www.w3.org/2000/svg" width="1082.667" height="1082.667" viewBox="0 0 812.000000 812.000000"><path d="M0 406v406h812V0H0v406zm377-210.2v22.9l-9.8.6c-18.2 1.2-32.4 6.2-40.6 14.2-10.6 10.2-14.6 25.4-14.6 54.6V303h69v45h-69v283h-54V348h-43v-45l21.3-.2 21.2-.3.6-23.5c.8-29.7 3-41.2 10.9-57.3 9.8-19.6 26.2-33 49.9-40.6 12.6-4.1 34.4-7.3 53.9-8l4.2-.1v22.8zm165 296.8c21.3 4.8 42.5 24.3 50.1 46.1 3.1 8.9 4 14.9 4 26.3 0 21.1-6.5 36.4-22.1 52.1-7.8 7.8-11 10.2-18.1 13.7-20 9.9-42.8 9.7-63.9-.5-8.2-4-10.8-5.9-19-14.2-7.9-7.9-10.3-11.1-13.7-18.1-6-12.3-7.6-19.3-7.7-33.5 0-13.6 1.5-20.9 6.8-32 7.1-15 19.4-27.4 34.1-34.5 16.1-7.8 31.4-9.4 49.5-5.4z"/></svg>